REM GENRE Soundtrack
REM DATE 2007-08-17
PERFORMER "上海アリス幻樂団"
TITLE "東方風神録　～ Mountain of Faith"
FILE "Touhou Fuujinroku ~ Mountain of Faith.flac" WAVE
  TRACK 01 AUDIO
    TITLE "封印されし神々"
    INDEX 01 00:00:00
  TRACK 02 AUDIO
    TITLE "人恋し神様　～ Romantic Fall"
    INDEX 01 02:36:01
  TRACK 03 AUDIO
    TITLE "稲田姫様に叱られるから"
    INDEX 01 07:02:35
  TRACK 04 AUDIO
    TITLE "厄神様の通り道　～ Dark Road"
    INDEX 01 08:40:03
  TRACK 05 AUDIO
    TITLE "運命のダークサイド"
    INDEX 01 12:48:69
  TRACK 06 AUDIO
    TITLE "神々が恋した幻想郷"
    INDEX 01 16:27:29
  TRACK 07 AUDIO
    TITLE "芥川龍之介の河童　～ Candid Friend"
    INDEX 01 22:24:12
  TRACK 08 AUDIO
    TITLE "フォールオブフォール　～ 秋めく滝"
    INDEX 01 27:16:37
  TRACK 09 AUDIO
    TITLE "妖怪の山　～ Mysterious Mountain"
    INDEX 01 34:04:58
  TRACK 10 AUDIO
    TITLE "少女が見た日本の原風景"
    INDEX 01 36:52:49
  TRACK 11 AUDIO
    TITLE "信仰は儚き人間の為に"
    INDEX 01 43:05:22
  TRACK 12 AUDIO
    TITLE "御柱の墓場　～ Grave of Being"
    INDEX 01 48:57:09
  TRACK 13 AUDIO
    TITLE "神さびた古戦場　～ Suwa Foughten Field"
    INDEX 01 51:09:44
  TRACK 14 AUDIO
    TITLE "明日ハレの日、ケの昨日"
    INDEX 01 56:16:28
  TRACK 15 AUDIO
    TITLE "ネイティブフェイス"
    INDEX 01 63:04:56
  TRACK 16 AUDIO
    TITLE "麓の神社"
    INDEX 01 68:54:50
  TRACK 17 AUDIO
    TITLE "神は恵みの雨を降らす　～ Sylphid Dream"
    INDEX 01 71:13:33
  TRACK 18 AUDIO
    TITLE "プレイヤーズスコア"
    INDEX 01 73:20:39
